<svg width="620" height="632" viewBox="0 0 620 632" fill="none" xmlns="http://www.w3.org/2000/svg">
<rect x="93" y="76" width="8" height="8" fill="#EA6A25" fill-opacity="0.75"/>
<rect x="43" y="152" width="8" height="8" fill="#EA6A25" fill-opacity="0.75"/>
<rect x="6" y="52" width="8" height="8" fill="#EA6A25" fill-opacity="0.75"/>
<rect x="7" y="3" width="8" height="8" fill="#EA6A25" fill-opacity="0.75"/>
<rect x="41" y="32" width="8" height="8" fill="#EA6A25" fill-opacity="0.75"/>
<rect x="21" y="89" width="8" height="8" fill="#EA6A25" fill-opacity="0.75"/>
<rect x="13" y="19" width="8" height="8" fill="#EA6A25" fill-opacity="0.75"/>
<rect x="23" y="8" width="8" height="8" fill="#EA6A25" fill-opacity="0.75"/>
<rect x="15" y="36" width="8" height="8" fill="#EA6A25" fill-opacity="0.75"/>
<rect width="8" height="8" transform="matrix(-1 0 0 1 105 115)" fill="#1C361C"/>
<rect width="8" height="8" transform="matrix(-1 0 0 1 33 24)" fill="#1C361C"/>
<rect width="8" height="8" transform="matrix(-1 0 0 1 35 56)" fill="#1C361C"/>
<rect width="8" height="8" transform="matrix(-1 0 0 1 25 3)" fill="#1C361C"/>
<rect width="8" height="8" transform="matrix(-1 0 0 1 55 8)" fill="#1C361C"/>
<rect width="8" height="8" transform="matrix(-1 0 0 1 21 111)" fill="#1C361C"/>
<rect width="8" height="8" transform="matrix(-1 0 0 1 15 23)" fill="#1C361C"/>
<rect width="8" height="8" transform="matrix(-1 0 0 1 83 48)" fill="#1C361C"/>
<rect width="8" height="8" transform="matrix(-1 0 0 1 128 24)" fill="#1C361C"/>
<rect width="8" height="8" transform="matrix(-1 0 0 1 229 108)" fill="#1C361C"/>
<rect width="8" height="8" transform="matrix(-1 0 0 1 104 202)" fill="#1C361C"/>
<rect width="8" height="8" transform="matrix(-1 0 0 1 22 266)" fill="#1C361C"/>
<rect x="191" y="36" width="8" height="8" fill="#EA6A25" fill-opacity="0.75"/>
<rect x="191" y="191" width="8" height="8" fill="#EA6A25" fill-opacity="0.75"/>
<rect width="8" height="8" transform="matrix(-1 0 0 1 168 286)" fill="#1C361C"/>
<rect x="276" y="175" width="8" height="8" fill="#EA6A25" fill-opacity="0.75"/>
<rect x="393" y="40" width="10" height="10" fill="#1C361C" fill-opacity="0.75"/>
<path d="M6 13H13V20H6V13Z" fill="#EA6A25" fill-opacity="0.8"/>
<rect x="6" y="13" width="7" height="7" fill="#EA6A25"/>
<rect x="10" y="10" width="10" height="10" fill="#1C361C" fill-opacity="0.75"/>
<rect x="5" y="39" width="10" height="10" fill="#1C361C" fill-opacity="0.75"/>
<path d="M24 19H31V26H24V19Z" fill="#EA6A25" fill-opacity="0.8"/>
<rect x="24" y="19" width="7" height="7" fill="#EA6A25"/>
<path d="M9 78H16V85H9V78Z" fill="#EA6A25" fill-opacity="0.8"/>
<rect x="9" y="78" width="7" height="7" fill="#EA6A25"/>
<path d="M92 47H99V54H92V47Z" fill="#EA6A25" fill-opacity="0.8"/>
<rect x="92" y="47" width="7" height="7" fill="#EA6A25"/>
<path d="M54 166H61V173H54V166Z" fill="#EA6A25" fill-opacity="0.8"/>
<rect x="54" y="166" width="7" height="7" fill="#EA6A25"/>
<path d="M99 142H106V149H99V142Z" fill="#EA6A25" fill-opacity="0.8"/>
<rect x="99" y="142" width="7" height="7" fill="#EA6A25"/>
<path d="M136 101H143V108H136V101Z" fill="#EA6A25" fill-opacity="0.8"/>
<rect x="136" y="101" width="7" height="7" fill="#EA6A25"/>
<path d="M66 96H73V103H66V96Z" fill="#EA6A25" fill-opacity="0.8"/>
<rect x="66" y="96" width="7" height="7" fill="#EA6A25"/>
<path d="M27 213H34V220H27V213Z" fill="#EA6A25" fill-opacity="0.8"/>
<rect x="27" y="213" width="7" height="7" fill="#EA6A25"/>
<path d="M144 52H151V59H144V52Z" fill="#EA6A25" fill-opacity="0.8"/>
<rect x="144" y="52" width="7" height="7" fill="#EA6A25"/>
<path d="M294 51H301V58H294V51Z" fill="#EA6A25" fill-opacity="0.8"/>
<rect x="294" y="51" width="7" height="7" fill="#EA6A25"/>
<path d="M72 346H79V353H72V346Z" fill="#EA6A25" fill-opacity="0.8"/>
<rect x="72" y="346" width="7" height="7" fill="#EA6A25"/>
<path d="M12 418H19V425H12V418Z" fill="#EA6A25" fill-opacity="0.8"/>
<rect x="12" y="418" width="7" height="7" fill="#EA6A25"/>
<path d="M189 390H196V397H189V390Z" fill="#EA6A25" fill-opacity="0.8"/>
<rect x="189" y="390" width="7" height="7" fill="#EA6A25"/>
<path d="M318 268H325V275H318V268Z" fill="#EA6A25" fill-opacity="0.8"/>
<rect x="318" y="268" width="7" height="7" fill="#EA6A25"/>
<path d="M462 123H469V130H462V123Z" fill="#EA6A25" fill-opacity="0.8"/>
<rect x="462" y="123" width="7" height="7" fill="#EA6A25"/>
<rect x="57" y="14" width="10" height="10" fill="#1C361C" fill-opacity="0.75"/>
<rect x="3" y="164" width="10" height="10" fill="#1C361C" fill-opacity="0.75"/>
<rect x="151" y="147" width="10" height="10" fill="#1C361C" fill-opacity="0.75"/>
<rect x="109" y="276" width="10" height="10" fill="#1C361C" fill-opacity="0.75"/>
<rect x="259" y="15" width="10" height="10" fill="#1C361C" fill-opacity="0.75"/>
<rect x="346" y="123" width="10" height="10" fill="#1C361C" fill-opacity="0.75"/>
<rect x="308" y="370" width="10" height="10" fill="#1C361C" fill-opacity="0.75"/>
<rect x="444" y="241" width="10" height="10" fill="#1C361C" fill-opacity="0.75"/>
<rect x="74" y="622" width="10" height="10" fill="#1C361C" fill-opacity="0.75"/>
<rect width="8" height="8" transform="matrix(-1 0 0 1 97 18)" fill="#1C361C"/>
<rect x="37" y="64" width="8" height="8" fill="#EA6A25" fill-opacity="0.75"/>
<rect x="325" y="511" width="8" height="8" fill="#EA6A25" fill-opacity="0.75"/>
<rect x="73" y="17" width="10" height="10" fill="#1C361C" fill-opacity="0.75"/>
<rect x="32" y="48" width="8" height="8" fill="#EA6A25" fill-opacity="0.75"/>
<path d="M39 114H46V121H39V114Z" fill="#EA6A25" fill-opacity="0.8"/>
<rect x="39" y="114" width="7" height="7" fill="#EA6A25"/>
<rect x="34" y="96" width="10" height="10" fill="#1C361C" fill-opacity="0.75"/>
<rect width="8" height="8" transform="matrix(-1 0 0 1 83 70)" fill="#1C361C"/>
<rect width="8" height="8" transform="matrix(-1 0 0 1 40 7)" fill="#1C361C"/>
<rect x="29" width="8" height="8" fill="#EA6A25" fill-opacity="0.75"/>
<path d="M0 23H7V30H0V23Z" fill="#EA6A25" fill-opacity="0.8"/>
<rect y="23" width="7" height="7" fill="#EA6A25"/>
<rect width="8" height="8" transform="matrix(-1 0 0 1 9 9)" fill="#1C361C"/>
<rect x="25" y="16" width="10" height="10" fill="#1C361C" fill-opacity="0.75"/>
<rect x="5" y="16" width="8" height="8" fill="#EA6A25" fill-opacity="0.75"/>
<rect width="8" height="8" transform="matrix(-1 0 0 1 49 0)" fill="#1C361C"/>
<rect x="36" y="27" width="10" height="10" fill="#1C361C" fill-opacity="0.75"/>
<path d="M35 17H42V24H35V17Z" fill="#EA6A25" fill-opacity="0.8"/>
<rect x="35" y="17" width="7" height="7" fill="#EA6A25"/>
<rect width="8" height="8" transform="matrix(-1 0 0 1 27 35)" fill="#1C361C"/>
<rect x="67" y="4" width="8" height="8" fill="#EA6A25" fill-opacity="0.75"/>
<rect width="8" height="8" transform="matrix(-1 0 0 1 172 0)" fill="#1C361C"/>
<path d="M217 11H224V18H217V11Z" fill="#EA6A25" fill-opacity="0.8"/>
<rect x="217" y="11" width="7" height="7" fill="#EA6A25"/>
<rect x="464" y="14" width="8" height="8" fill="#EA6A25" fill-opacity="0.75"/>
<rect width="8" height="8" transform="matrix(-1 0 0 1 612 134)" fill="#1C361C"/>
<rect width="8" height="8" transform="matrix(-1 0 0 1 620 22)" fill="#1C361C"/>
<rect width="8" height="8" transform="matrix(-1 0 0 1 113 1)" fill="#1C361C"/>
<path d="M134 15H141V22H134V15Z" fill="#EA6A25" fill-opacity="0.8"/>
<rect x="134" y="15" width="7" height="7" fill="#EA6A25"/>
<rect x="61" y="46" width="8" height="8" fill="#EA6A25" fill-opacity="0.75"/>
<path d="M3 3H10V10H3V3Z" fill="#EA6A25" fill-opacity="0.8"/>
<rect x="3" y="3" width="7" height="7" fill="#EA6A25"/>
<path d="M3 35H10V42H3V35Z" fill="#EA6A25" fill-opacity="0.8"/>
<rect x="3" y="35" width="7" height="7" fill="#EA6A25"/>
</svg>
