<svg width="57" height="55" viewBox="0 0 57 55" fill="none" xmlns="http://www.w3.org/2000/svg">
<path d="M33.25 4.58333H14.25C12.9902 4.58333 11.782 5.06621 10.8912 5.92576C10.0004 6.7853 9.5 7.95109 9.5 9.16666V45.8333C9.5 47.0489 10.0004 48.2147 10.8912 49.0742C11.782 49.9338 12.9902 50.4167 14.25 50.4167H42.75C44.0098 50.4167 45.218 49.9338 46.1088 49.0742C46.9996 48.2147 47.5 47.0489 47.5 45.8333V18.3333L33.25 4.58333Z" stroke="#EA6A25" stroke-width="2" stroke-linecap="round" stroke-linejoin="round"/>
<path d="M33.25 4.58333H14.25C12.9902 4.58333 11.782 5.06621 10.8912 5.92576C10.0004 6.7853 9.5 7.95109 9.5 9.16666V45.8333C9.5 47.0489 10.0004 48.2147 10.8912 49.0742C11.782 49.9338 12.9902 50.4167 14.25 50.4167H42.75C44.0098 50.4167 45.218 49.9338 46.1088 49.0742C46.9996 48.2147 47.5 47.0489 47.5 45.8333V18.3333L33.25 4.58333Z" stroke="white" stroke-opacity="0.24" stroke-width="2" stroke-linecap="round" stroke-linejoin="round"/>
<path d="M33.25 4.58333V18.3333H47.5" stroke="#EA6A25" stroke-width="2" stroke-linecap="round" stroke-linejoin="round"/>
<path d="M33.25 4.58333V18.3333H47.5" stroke="white" stroke-opacity="0.24" stroke-width="2" stroke-linecap="round" stroke-linejoin="round"/>
<path d="M38 29.7917H19" stroke="#EA6A25" stroke-width="2" stroke-linecap="round" stroke-linejoin="round"/>
<path d="M38 29.7917H19" stroke="white" stroke-opacity="0.24" stroke-width="2" stroke-linecap="round" stroke-linejoin="round"/>
<path d="M38 38.9583H19" stroke="#EA6A25" stroke-width="2" stroke-linecap="round" stroke-linejoin="round"/>
<path d="M38 38.9583H19" stroke="white" stroke-opacity="0.24" stroke-width="2" stroke-linecap="round" stroke-linejoin="round"/>
<path d="M23.75 20.625H21.375H19" stroke="#EA6A25" stroke-width="2" stroke-linecap="round" stroke-linejoin="round"/>
<path d="M23.75 20.625H21.375H19" stroke="white" stroke-opacity="0.24" stroke-width="2" stroke-linecap="round" stroke-linejoin="round"/>
</svg>
