<svg width="35" height="35" viewBox="0 0 35 35" fill="none" xmlns="http://www.w3.org/2000/svg">
<path d="M30.625 14.5833C30.625 24.7917 17.5 33.5417 17.5 33.5417C17.5 33.5417 4.375 24.7917 4.375 14.5833C4.375 11.1024 5.75781 7.76397 8.21922 5.30255C10.6806 2.84114 14.019 1.45833 17.5 1.45833C20.981 1.45833 24.3194 2.84114 26.7808 5.30255C29.2422 7.76397 30.625 11.1024 30.625 14.5833Z" stroke="#EA6A25" stroke-width="2" stroke-linecap="round" stroke-linejoin="round"/>
<path d="M30.625 14.5833C30.625 24.7917 17.5 33.5417 17.5 33.5417C17.5 33.5417 4.375 24.7917 4.375 14.5833C4.375 11.1024 5.75781 7.76397 8.21922 5.30255C10.6806 2.84114 14.019 1.45833 17.5 1.45833C20.981 1.45833 24.3194 2.84114 26.7808 5.30255C29.2422 7.76397 30.625 11.1024 30.625 14.5833Z" stroke="white" stroke-opacity="0.24" stroke-width="2" stroke-linecap="round" stroke-linejoin="round"/>
<path d="M17.5 18.9583C19.9162 18.9583 21.875 16.9996 21.875 14.5833C21.875 12.1671 19.9162 10.2083 17.5 10.2083C15.0838 10.2083 13.125 12.1671 13.125 14.5833C13.125 16.9996 15.0838 18.9583 17.5 18.9583Z" stroke="#EA6A25" stroke-width="2" stroke-linecap="round" stroke-linejoin="round"/>
<path d="M17.5 18.9583C19.9162 18.9583 21.875 16.9996 21.875 14.5833C21.875 12.1671 19.9162 10.2083 17.5 10.2083C15.0838 10.2083 13.125 12.1671 13.125 14.5833C13.125 16.9996 15.0838 18.9583 17.5 18.9583Z" stroke="white" stroke-opacity="0.24" stroke-width="2" stroke-linecap="round" stroke-linejoin="round"/>
</svg>
